<?xml version="1.0" encoding="UTF-8" standalone="no"?>
<svg width="32px" height="32px" viewBox="0 0 32 32" version="1.1" xmlns="http://www.w3.org/2000/svg" xmlns:xlink="http://www.w3.org/1999/xlink">
    <!-- Generator: Sketch 45.1 (43504) - http://www.bohemiancoding.com/sketch -->
    <title>Icon/会员中心/待评价</title>
    <desc>Created with Sketch.</desc>
    <defs></defs>
    <g id="Symbols" stroke="none" stroke-width="1" fill="none" fill-rule="evenodd">
        <g id="Icon/会员中心/待评价">
            <g id="Group-2" transform="translate(3.000000, 3.000000)" stroke="#666666" stroke-width="0.8">
                <path d="M13.2484011,10.4170408 C13.0470065,10.5848002 12.7530323,10.5794194 12.5579117,10.4044024 C12.3194339,10.1904953 12.1457899,10.0269387 12.0341671,9.91053566 C11.8413072,9.70941642 11.508002,9.5076039 11.1153133,9.38423469 C9.78468939,8.96619865 8.38067499,9.24992618 7.56366182,10.4693226 C6.64435999,11.8413854 6.76853217,13.2864227 8.17316335,14.8025483 C8.81872159,15.4993485 8.84566072,15.528046 9.04966599,15.7310804 C9.24823416,15.9287036 9.07928401,15.7681661 10.3231724,16.9452228 C11.1203876,17.6996053 11.9151688,18.4425465 12.7075156,19.1740466 C12.8041114,19.2632245 12.9544753,19.2580905 13.0447635,19.1625317 C13.9890348,18.1631387 15.1063099,17.1252941 16.3966955,16.0485101 C18.039338,14.6777795 18.8764289,13.3888532 18.8366609,12.1522027 C18.8181701,11.5772003 18.6105879,10.9999433 18.2038069,10.4258468 C17.4131639,9.40791925 16.392589,9.03635312 15.1634021,9.25571069 C14.6744496,9.34296792 14.3788104,9.50462998 13.8916232,9.89283976 C13.6777907,10.0632298 13.463383,10.2379634 13.2484011,10.4170408 Z" id="Path-5"></path>
                <path d="M23.6354381,19.6443334 C24.8601051,17.6953913 25.5683836,15.3891318 25.5683836,12.9174449 C25.5683836,5.92511914 19.8999835,0.256719091 12.9076577,0.256719091 C5.91533191,0.256719091 0.246931869,5.92511914 0.246931869,12.9174449 C0.246931869,19.9097708 5.91533191,25.5781708 12.9076577,25.5781708 C15.4817981,25.5781708 17.8765127,24.8099578 19.8750467,23.4902868 L22.6857489,24.2434122 C22.8776916,24.2948431 23.0789728,24.3008784 23.2736521,24.2610402 C23.9662244,24.1193157 24.4127748,23.4429846 24.2710504,22.7504123 L24.2710504,22.7504123 L23.6354381,19.6443334 Z" id="Combined-Shape"></path>
            </g>
            <g id="Icon/模板"></g>
        </g>
    </g>
</svg>