<?xml version="1.0" encoding="UTF-8" standalone="no"?>
<svg width="24px" height="24px" viewBox="0 0 24 24" version="1.1" xmlns="http://www.w3.org/2000/svg" xmlns:xlink="http://www.w3.org/1999/xlink">
    <!-- Generator: Sketch 45.1 (43504) - http://www.bohemiancoding.com/sketch -->
    <title>Icon/会员中心/我的二维码</title>
    <desc>Created with Sketch.</desc>
    <defs></defs>
    <g id="Symbols" stroke="none" stroke-width="1" fill="none" fill-rule="evenodd">
        <g id="Icon/会员中心/我的二维码">
            <g id="Icon/模板"></g>
            <g id="单色-copy" transform="translate(2.500000, 2.500000)">
                <path d="M7.03112943,7.83227007 L1.51145071,7.83227007 C0.904286054,7.83227007 0.407514969,7.35393122 0.407514969,6.76929484 L0.407514969,1.45441869 C0.407514969,0.869782308 0.904286054,0.391443454 1.51145071,0.391443454 L7.03112943,0.391443454 C7.63829408,0.391443454 8.13506517,0.869782308 8.13506517,1.45441869 L8.13506517,6.76929484 C8.13506517,7.35393122 7.63829408,7.83227007 7.03112943,7.83227007 Z" id="Stroke-4" stroke="#666666" stroke-width="0.8"></path>
                <path d="M17.5479786,7.83227007 L12.0282999,7.83227007 C11.4211352,7.83227007 10.9243641,7.35393122 10.9243641,6.76929484 L10.9243641,1.45441869 C10.9243641,0.869782308 11.4211352,0.391443454 12.0282999,0.391443454 L17.5479786,0.391443454 C18.1551432,0.391443454 18.6519143,0.869782308 18.6519143,1.45441869 L18.6519143,6.76929484 C18.6519143,7.35393122 18.1551432,7.83227007 17.5479786,7.83227007 Z" id="Stroke-6" stroke="#666666" stroke-width="0.8"></path>
                <path d="M7.03112943,18.2554195 L1.51145071,18.2554195 C0.904286054,18.2554195 0.407514969,17.7770806 0.407514969,17.1924442 L0.407514969,11.8775681 C0.407514969,11.2929317 0.904286054,10.8145929 1.51145071,10.8145929 L7.03112943,10.8145929 C7.63829408,10.8145929 8.13506517,11.2929317 8.13506517,11.8775681 L8.13506517,17.1924442 C8.13506517,17.7770806 7.63829408,18.2554195 7.03112943,18.2554195 Z" id="Stroke-8" stroke="#666666" stroke-width="0.8"></path>
                <path d="M11.3613387,10.6897812 C11.3613387,10.4966302 11.5234972,10.3400503 11.7109183,10.3400503 C11.9039859,10.3400503 12.060498,10.5018492 12.060498,10.6897812 L12.060498,14.8532626 C12.060498,15.0464136 11.8983395,15.2029935 11.7109183,15.2029935 C11.5178508,15.2029935 11.3613387,15.0411946 11.3613387,14.8532626 L11.3613387,10.6897812 Z M17.4582804,10.6897812 C17.4582804,10.4966302 17.620439,10.3400503 17.8078601,10.3400503 C18.0009276,10.3400503 18.1574397,10.5018492 18.1574397,10.6897812 L18.1574397,14.8532626 C18.1574397,15.0464136 17.9952812,15.2029935 17.8078601,15.2029935 C17.6147926,15.2029935 17.4582804,15.0411946 17.4582804,14.8532626 L17.4582804,10.6897812 Z M14.6220108,14.2167497 C14.6220108,14.0235987 14.7841693,13.8670189 14.9715904,13.8670189 C15.1646579,13.8670189 15.3211701,14.0288177 15.3211701,14.2167497 L15.3211701,18.3802311 C15.3211701,18.5733821 15.1590115,18.729962 14.9715904,18.729962 C14.7785229,18.729962 14.6220108,18.5681632 14.6220108,18.3802311 L14.6220108,14.2167497 Z M11.3613387,16.3652204 C11.3613387,16.1688043 11.5234972,16.0095776 11.7109183,16.0095776 C11.9039859,16.0095776 12.060498,16.1716032 12.060498,16.3652204 L12.060498,18.3743192 C12.060498,18.5707353 11.8983395,18.729962 11.7109183,18.729962 C11.5178508,18.729962 11.3613387,18.5679364 11.3613387,18.3743192 L11.3613387,16.3652204 Z M17.4582804,16.3652204 C17.4582804,16.1688043 17.620439,16.0095776 17.8078601,16.0095776 C18.0009276,16.0095776 18.1574397,16.1716032 18.1574397,16.3652204 L18.1574397,18.3743192 C18.1574397,18.5707353 17.9952812,18.729962 17.8078601,18.729962 C17.6147926,18.729962 17.4582804,18.5679364 17.4582804,18.3743192 L17.4582804,16.3652204 Z M14.6220108,10.6956931 C14.6220108,10.499277 14.7841693,10.3400503 14.9715904,10.3400503 C15.1646579,10.3400503 15.3211701,10.502076 15.3211701,10.6956931 L15.3211701,12.704792 C15.3211701,12.901208 15.1590115,13.0604347 14.9715904,13.0604347 C14.7785229,13.0604347 14.6220108,12.8984091 14.6220108,12.704792 L14.6220108,10.6956931 Z" id="Combined-Shape" fill="#666666"></path>
            </g>
        </g>
    </g>
</svg>