<?xml version="1.0" encoding="UTF-8" standalone="no"?>
<svg width="28px" height="28px" viewBox="0 0 28 28" version="1.1" xmlns="http://www.w3.org/2000/svg" xmlns:xlink="http://www.w3.org/1999/xlink">
    <!-- Generator: Sketch 45.1 (43504) - http://www.bohemiancoding.com/sketch -->
    <title>Group 3</title>
    <desc>Created with Sketch.</desc>
    <defs></defs>
    <g id="会员中心" stroke="none" stroke-width="1" fill="none" fill-rule="evenodd">
        <g id="微信-会员中心首页-copy-5" transform="translate(-99.000000, -234.000000)">
            <g id="订单-五个选项" transform="translate(0.000000, 215.000000)">
                <g id="服务中" transform="translate(75.000000, 0.000000)">
                    <g id="icon/会员中心/服务中" transform="translate(24.000000, 19.000000)">
                        <g id="Icon/模板"></g>
                        <g id="Group-3-Copy" transform="translate(1.342428, 4.343258)">
                            <g id="Page-1" transform="translate(4.400005, 4.778767)" fill="#666666">
                                <path d="M8.53153119,1.0753577 C8.50999612,0.994270357 8.44563154,0.984886362 8.39895218,0.984886362 C8.37681558,0.984886362 8.35395713,0.987292514 8.33218145,0.989578359 C8.32327868,0.99054082 8.31449623,0.991503281 8.306195,0.992225127 C8.23328858,0.998240508 8.13620032,1.02735495 8.03345761,1.05791309 C7.91327029,1.09376476 7.78935343,1.13093982 7.70285225,1.13093982 C7.65809781,1.13093982 7.62838183,1.1211949 7.61226061,1.10134414 C7.59589877,1.08089185 7.59240985,1.04792756 7.60167353,1.00305281 C7.63235198,0.855796277 7.65821812,0.677500373 7.67698611,0.547447828 C7.68600918,0.48753463 7.69322764,0.436403888 7.69936333,0.400552215 C7.71091286,0.333661174 7.7147627,0.240783686 7.66700058,0.179426796 C7.64017198,0.144898507 7.60035015,0.125288363 7.54897879,0.121318212 C7.41928717,0.111452986 7.39751149,0.174975413 7.36190043,0.274108898 C7.3581709,0.284455354 7.35432105,0.295283041 7.35023059,0.306712265 C7.32051461,0.387198068 7.30331062,0.463713719 7.28682847,0.537582603 C7.27395556,0.594969341 7.26072172,0.654160694 7.24159281,0.716359737 C7.08615535,1.22129085 7.07641043,1.22153146 6.56811071,1.24306653 L6.50470859,1.24583361 C6.36370805,1.25184899 6.23088843,1.28132436 6.21392505,1.45384549 C6.19828506,1.61024541 6.29777947,1.62492294 6.41291387,1.64188632 C6.43288493,1.6447737 6.45369815,1.6479017 6.47511291,1.65175154 C6.54212426,1.66438384 6.62682083,1.65800754 6.70490048,1.649586 C6.74544415,1.64525493 6.78743151,1.64080355 6.8282158,1.6400817 L6.83290779,1.63984109 C6.89751299,1.63984109 6.96199788,1.67039922 7.00121817,1.71948473 C7.02600154,1.75028349 7.05210829,1.80261731 7.03562615,1.87540342 C7.0174597,1.95456584 6.97511141,2.15704358 6.97426926,2.33329425 C6.97366772,2.47369325 7.02167046,2.55297598 7.11719472,2.56885658 C7.13379717,2.57174397 7.14955747,2.57306735 7.16387408,2.57306735 C7.25506726,2.57306735 7.29609216,2.51965077 7.34854629,2.43784158 C7.40136133,2.35579178 7.40617364,2.26098937 7.41110625,2.16955557 C7.41194841,2.14910327 7.41291087,2.1290119 7.41447487,2.10892053 L7.41543733,2.09869438 C7.43420532,1.8577182 7.45549977,1.58437927 7.75229868,1.51111192 C7.8046325,1.49847962 7.85516171,1.48729101 7.90484876,1.47634302 C8.06762498,1.44061165 8.22149843,1.40692552 8.38788388,1.32355233 C8.46343707,1.28577574 8.55799887,1.17557395 8.53153119,1.0753577" id="Fill-1"></path>
                                <path d="M2.09619198,1.23383894 L1.54951412,1.23383894 L1.54951412,0.690048459 C1.54951412,0.506579327 1.39949051,0.357397869 1.21517922,0.357397869 C1.03086794,0.357397869 0.880844325,0.506579327 0.880844325,0.690048459 L0.880844325,1.23383894 L0.334286774,1.23383894 C0.149975488,1.23383894 7.2184577e-05,1.38302039 7.2184577e-05,1.56648953 C7.2184577e-05,1.74995866 0.149975488,1.89926042 0.334286774,1.89926042 L0.880844325,1.89926042 L0.880844325,2.44317121 C0.880844325,2.62664034 1.03086794,2.77570149 1.21517922,2.77570149 C1.39949051,2.77570149 1.54951412,2.62664034 1.54951412,2.44317121 L1.54951412,1.89926042 L2.09619198,1.89926042 C2.28050326,1.89926042 2.43040657,1.74995866 2.43040657,1.56648953 C2.43040657,1.38302039 2.28050326,1.23383894 2.09619198,1.23383894" id="Fill-4"></path>
                                <path d="M2.09619198,3.57537426 L0.334286774,3.57537426 C0.149975488,3.57537426 7.2184577e-05,3.72455572 7.2184577e-05,3.90802485 C7.2184577e-05,4.09149398 0.149975488,4.24079575 0.334286774,4.24079575 L0.880724018,4.24079575 L0.880724018,5.81646474 C0.880724018,5.99981357 1.03086794,6.14911533 1.21517922,6.14911533 C1.39949051,6.14911533 1.54951412,5.99981357 1.54951412,5.81646474 L1.54951412,4.24079575 L2.09619198,4.24079575 C2.28050326,4.24079575 2.43040657,4.09149398 2.43040657,3.90802485 C2.43040657,3.72455572 2.28050326,3.57537426 2.09619198,3.57537426" id="Fill-6"></path>
                                <path d="M5.06376007,4.24083184 C5.24807136,4.24083184 5.39797466,4.09165038 5.39797466,3.90806094 C5.39797466,3.72471212 5.24807136,3.57541035 5.06376007,3.57541035 L4.51720252,3.57541035 L4.51720252,3.35584893 C4.51720252,3.1723798 4.36729922,3.02319834 4.18274732,3.02319834 C3.99843603,3.02319834 3.84841242,3.1723798 3.84841242,3.35584893 L3.84841242,3.57541035 L3.30173456,3.57541035 C3.11742327,3.57541035 2.96727935,3.72471212 2.96727935,3.90806094 C2.96727935,4.09165038 3.11742327,4.24083184 3.30173456,4.24083184 L3.84841242,4.24083184 L3.84841242,5.04328371 C3.84841242,5.04713356 3.84889365,5.05086309 3.84949519,5.05471294 C3.84985611,5.05651755 3.84997642,5.05832217 3.85009673,5.05988617 C3.86814287,5.6708083 4.36272753,6.14915142 4.97629643,6.14915142 C5.16072802,6.14915142 5.31075163,5.99996997 5.31075163,5.81662114 C5.31075163,5.6330317 5.16072802,5.48372994 4.97629643,5.48372994 C4.72340979,5.48372994 4.51732283,5.27896636 4.51720252,5.02704218 L4.51720252,4.24083184 L5.06376007,4.24083184 Z" id="Fill-8"></path>
                                <path d="M5.06376007,1.23383894 L4.51720252,1.23383894 L4.51720252,0.690048459 C4.51720252,0.506579327 4.36729922,0.357397869 4.18274732,0.357397869 C3.99843603,0.357397869 3.84841242,0.506579327 3.84841242,0.690048459 L3.84841242,1.23383894 L3.30173456,1.23383894 C3.11742327,1.23383894 2.96727935,1.38302039 2.96727935,1.56648953 C2.96727935,1.74995866 3.11742327,1.89926042 3.30173456,1.89926042 L3.84841242,1.89926042 L3.84841242,2.44317121 C3.84841242,2.62664034 3.99843603,2.77570149 4.18274732,2.77570149 C4.36729922,2.77570149 4.51720252,2.62664034 4.51720252,2.44317121 L4.51720252,1.89926042 L5.06376007,1.89926042 C5.24807136,1.89926042 5.39797466,1.74995866 5.39797466,1.56648953 C5.39797466,1.38302039 5.24807136,1.23383894 5.06376007,1.23383894" id="Fill-10"></path>
                            </g>
                            <circle id="Oval-10" stroke="#666666" stroke-width="0.8" cx="7.02113235" cy="16.9199157" r="2.82913136"></circle>
                            <circle id="Oval-10-Copy" stroke="#666666" stroke-width="0.8" cx="19.9822395" cy="16.9199157" r="2.82913136"></circle>
                            <polyline id="Path-2" stroke="#666666" stroke-width="0.8" stroke-linecap="round" stroke-linejoin="round" points="4.06016126 16.917817 0.0196376823 16.917817 0.0196376823 0.591812453 15.5370163 0.591812453 15.5370163 4.92084121 19.9648698 4.92084121 22.3568691 9.29218066 25.1316586 9.29218066 25.1316586 16.7745707 22.9313077 16.7745707"></polyline>
                            <path d="M15.5707341,4.63270328 L15.5707341,14.3821988" id="Path-3" stroke="#666666" stroke-width="0.8" stroke-linecap="round"></path>
                            <path d="M13.7270088,16.9325424 L10.148136,16.9325424" id="Path-3-Copy" stroke="#666666" stroke-width="0.8" stroke-linecap="round"></path>
                        </g>
                    </g>
                </g>
            </g>
        </g>
    </g>
</svg>