<?xml version="1.0" encoding="UTF-8" standalone="no"?>
<svg width="24px" height="24px" viewBox="0 0 24 24" version="1.1" xmlns="http://www.w3.org/2000/svg" xmlns:xlink="http://www.w3.org/1999/xlink">
    <!-- Generator: Sketch 45.1 (43504) - http://www.bohemiancoding.com/sketch -->
    <title>Icon/会员中心/帮助中心</title>
    <desc>Created with Sketch.</desc>
    <defs></defs>
    <g id="Symbols" stroke="none" stroke-width="1" fill="none" fill-rule="evenodd">
        <g id="Icon/会员中心/帮助中心">
            <g id="Icon/模板"></g>
            <g id="帮助中心-(1)" transform="translate(2.000000, 2.000000)">
                <path d="M9.98610029,0 C4.48019121,0 0,4.4844029 0,9.99829799 C0,15.5110212 4.48019121,20 9.98610029,20 C15.4919536,20 19.9721448,15.5110212 19.9721448,9.99829799 C19.9721448,4.4844029 15.4919258,0 9.98610029,0" id="Path" stroke="#666666" stroke-width="0.8"></path>
                <path d="M6.68847656,8.18505859 C6.80078181,7.1938427 7.16454771,6.42846949 7.77978516,5.88891602 C8.39502261,5.34936254 9.19091309,5.07958984 10.1674805,5.07958984 C11.1733449,5.07958984 11.9997526,5.35668668 12.6467285,5.91088867 C13.2937044,6.46509066 13.6171875,7.16210518 13.6171875,8.00195312 C13.6171875,8.4218771 13.5231943,8.82958787 13.3352051,9.22509766 C13.1472159,9.62060745 12.7016637,10.1284149 11.9985352,10.7485352 C11.4614231,11.2270532 11.1232917,11.6042467 10.9841309,11.880127 C10.84497,12.1560072 10.7680665,12.6503871 10.753418,13.3632812 L9.49365234,13.3632812 C9.49365234,12.7968722 9.51440409,12.3830579 9.5559082,12.1218262 C9.59741232,11.8605944 9.68286068,11.60547 9.81225586,11.3564453 C9.94165104,11.1074206 10.1101064,10.873048 10.317627,10.6533203 C10.5251475,10.4335927 10.8168927,10.1601579 11.1928711,9.83300781 C11.6713891,9.408201 11.9704584,9.07495238 12.0900879,8.83325195 C12.2097174,8.59155153 12.2695313,8.34619265 12.2695313,8.09716797 C12.2695313,7.58447009 12.0668966,7.13403514 11.6616211,6.74584961 C11.2563456,6.35766407 10.7631865,6.16357422 10.1821289,6.16357422 C9.00048237,6.16357422 8.28759888,6.88622324 8.04345703,8.33154297 L6.68847656,8.18505859 Z M10.9072266,16 L9.40576172,16 L9.40576172,14.4985352 L10.9072266,14.4985352 L10.9072266,16 Z" id="?" fill="#666666"></path>
            </g>
        </g>
    </g>
</svg>