<?xml version="1.0" encoding="UTF-8" standalone="no"?>
<svg width="24px" height="24px" viewBox="0 0 24 24" version="1.1" xmlns="http://www.w3.org/2000/svg" xmlns:xlink="http://www.w3.org/1999/xlink">
    <!-- Generator: Sketch 45.1 (43504) - http://www.bohemiancoding.com/sketch -->
    <title>Icon/会员中心/吐槽建议</title>
    <desc>Created with Sketch.</desc>
    <defs>
        <path d="M0.735643847,0.214609464 C0.835228446,0.181240103 0.941963121,0.163158338 1.05310818,0.163158338 L20.2637299,0.163158338 C20.4835791,0.163158338 20.6867585,0.235834118 20.8513615,0.357679797 L21.0047973,0.544437643 C21.356274,0.972245351 21.2882243,1.6017676 20.8601519,1.9446297 L11.4394692,9.49007195 C11.0081071,9.83556896 10.3054412,9.83818788 9.86856434,9.49477647 L0.465490624,2.10339657 C0.0292659334,1.7604978 -0.0376360417,1.13955763 0.323083853,0.708087462 L0.735643847,0.214609464 Z" id="path-1"></path>
    </defs>
    <g id="Symbols" stroke="none" stroke-width="1" fill="none" fill-rule="evenodd">
        <g id="Icon/会员中心/吐槽建议">
            <g id="Icon/模板"></g>
            <g id="Group-2-Copy" transform="translate(1.276837, 4.000000)">
                <rect id="Rectangle-19" stroke="#666666" stroke-width="0.8" x="0.484423803" y="0.563158338" width="20.3458035" height="14.4998323" rx="1"></rect>
                <path d="M1.15452738,4.05040501 L0.660970639,4.54396176 C0.426300316,4.77863208 0.425393952,5.16136777 0.658851326,5.39482514 L10.1511125,14.8870863 C10.3864683,15.1224421 10.765434,15.1215089 11.0019759,14.884967 L20.6535544,5.23338843 C20.8882247,4.99871811 20.8891311,4.61598242 20.6556737,4.38252504 L20.3264934,4.05334476 C20.3070326,4.05139094 20.2873719,4.05040501 20.2675458,4.05040501 L1.15452738,4.05040501 Z" id="Combined-Shape-Copy" stroke="#666666" stroke-width="0.8" transform="translate(10.657263, 9.556698) scale(1, -1) translate(-10.657263, -9.556698) "></path>
                <g id="Combined-Shape">
                    <use fill="#FFFFFF" fill-rule="evenodd" xlink:href="#path-1"></use>
                    <path stroke="#666666" stroke-width="0.8" d="M0.959633287,0.570321055 L0.629965721,0.964648408 C0.414974312,1.22180744 0.452625629,1.58449864 0.712686455,1.78892205 L10.1157602,9.18030196 C10.4064436,9.40879656 10.9030887,9.40719681 11.1894114,9.17786829 L20.6100942,1.63242604 C20.8654354,1.42791192 20.9047467,1.05277101 20.6957292,0.798360664 L20.6133745,0.679179726 C20.5118457,0.604024065 20.3908973,0.563158338 20.2637299,0.563158338 L1.05310818,0.563158338 C1.02140712,0.563158338 0.990200189,0.565571611 0.959633287,0.570321055 Z"></path>
                </g>
            </g>
        </g>
    </g>
</svg>