<?xml version="1.0" encoding="UTF-8" standalone="no"?>
<svg width="24px" height="24px" viewBox="0 0 24 24" version="1.1" xmlns="http://www.w3.org/2000/svg" xmlns:xlink="http://www.w3.org/1999/xlink">
    <!-- Generator: Sketch 45.1 (43504) - http://www.bohemiancoding.com/sketch -->
    <title>Icon/会员中心/花+合伙人</title>
    <desc>Created with Sketch.</desc>
    <defs></defs>
    <g id="Symbols" stroke="none" stroke-width="1" fill="none" fill-rule="evenodd">
        <g id="Icon/会员中心/花+合伙人">
            <g id="Icon/模板"></g>
            <path d="M18.3147559,20.0856237 L5.74687616,20.0856237 C5.48339888,20.0856237 5.25631106,19.9001963 5.20366967,19.6420237 L3.68436737,12.1911038 C3.41281481,12.1777238 3.14910101,12.1158584 2.8990037,12.0066562 C2.62569417,11.8873177 2.38063125,11.716892 2.17064006,11.5001433 C1.96186523,11.2846109 1.79802818,11.0338378 1.68369026,10.7547844 C1.56566947,10.4667433 1.50583127,10.1612678 1.50583127,9.84680475 C1.50583127,9.53234168 1.56566947,9.22686616 1.68369026,8.93879136 C1.79799439,8.65973791 1.96186523,8.40896484 2.17064006,8.19343246 C2.38063125,7.97664992 2.62569417,7.80622425 2.8990037,7.68688573 C3.183497,7.56268177 3.48552616,7.49970131 3.79677939,7.49970131 C4.10803262,7.49970131 4.41009557,7.56268177 4.69458886,7.68688573 C4.96789839,7.80622425 5.21296131,7.97664992 5.4229525,8.19343246 C5.63172733,8.40896484 5.79556438,8.65973791 5.9099023,8.93879136 C6.02792309,9.22686616 6.08776129,9.53234168 6.08776129,9.84680475 C6.08776129,10.1056193 6.0462023,10.3610889 5.96578733,10.6033136 L8.76145763,12.6877169 L10.6487767,8.1348782 C10.0833716,7.69759646 9.73843192,7.00829152 9.73843192,6.26141216 C9.73843192,5.94698287 9.79827012,5.64150736 9.91629091,5.35346635 C10.0306288,5.07441289 10.1944659,4.82363983 10.4032745,4.60810744 C10.6132657,4.3913249 10.8583286,4.22089923 11.1316381,4.10156071 C11.4160976,3.97735675 11.7181606,3.91437629 12.0294138,3.91437629 C12.3406671,3.91437629 12.64273,3.97735675 12.9272233,4.10156071 C13.2005328,4.22089923 13.4455957,4.3913249 13.6555869,4.60807365 C13.8643618,4.82360604 14.0282326,5.0743791 14.1425705,5.35343256 C14.2605913,5.64147357 14.3204633,5.94698287 14.3204633,6.26141216 C14.3204633,7.00700758 13.9761994,7.69577192 13.4121458,8.13322259 L15.3001744,12.6877169 L18.0935809,10.6049692 C18.0127943,10.3622377 17.9710664,10.1062275 17.9710664,9.84680475 C17.9710664,9.53234168 18.0309046,9.22686616 18.1488916,8.93879136 C18.2632295,8.65973791 18.4270665,8.40896484 18.6358751,8.19343246 C18.8458663,7.97664992 19.0909293,7.80622425 19.3642388,7.68688573 C19.6487321,7.56268177 19.950795,7.49970131 20.2620145,7.49970131 C20.5732677,7.49970131 20.8753644,7.56268177 21.1598577,7.68688573 C21.4331673,7.80622425 21.6782302,7.97664992 21.8882214,8.19343246 C22.09703,8.40896484 22.260867,8.65973791 22.375205,8.93879136 C22.4932258,9.22686616 22.553064,9.53234168 22.553064,9.84680475 C22.553064,10.161234 22.4932258,10.4667433 22.375205,10.7547844 C22.260867,11.0338378 22.09703,11.2846109 21.8882214,11.5001433 C21.6782302,11.716892 21.4331673,11.8873177 21.1598577,12.0066562 C20.9106051,12.1154867 20.6478374,12.1772846 20.3772647,12.1909349 L18.8579624,19.6420237 C18.805321,19.9001963 18.5782332,20.0856237 18.3147559,20.0856237 Z" id="皇冠" stroke="#666666" stroke-width="0.8"></path>
        </g>
    </g>
</svg>